<svg width="24" height="24" viewBox="0 0 24 24" fill="none" xmlns="http://www.w3.org/2000/svg">
<circle cx="12" cy="12" r="12" fill="#DCDCE4"/>
<path fill-rule="evenodd" clip-rule="evenodd" d="M18 9C18 8.44772 17.5523 8 17 8H7C6.44771 8 6 8.44772 6 9C6 9.55228 6.44772 10 7 10H17C17.5523 10 18 9.55228 18 9ZM16 13C16 12.4477 15.5523 12 15 12H9C8.44771 12 8 12.4477 8 13C8 13.5523 8.44771 14 9 14H15C15.5523 14 16 13.5523 16 13ZM13 16C13.5523 16 14 16.4477 14 17C14 17.5523 13.5523 18 13 18H11C10.4477 18 10 17.5523 10 17C10 16.4477 10.4477 16 11 16H13Z" fill="#32324D"/>
</svg>
