<svg viewBox="0 0 18 18" fill="none" xmlns="http://www.w3.org/2000/svg">
<path d="M8.99984 17.3334C4.39734 17.3334 0.666504 13.6026 0.666504 9.00008C0.666504 4.39758 4.39734 0.666748 8.99984 0.666748C13.6023 0.666748 17.3332 4.39758 17.3332 9.00008C17.3332 13.6026 13.6023 17.3334 8.99984 17.3334ZM5.6665 9.83342C5.6665 10.7175 6.01769 11.5653 6.64281 12.1904C7.26794 12.8156 8.11578 13.1667 8.99984 13.1667C9.88389 13.1667 10.7317 12.8156 11.3569 12.1904C11.982 11.5653 12.3332 10.7175 12.3332 9.83342H5.6665ZM5.6665 8.16675C5.99802 8.16675 6.31597 8.03505 6.55039 7.80063C6.78481 7.56621 6.9165 7.24827 6.9165 6.91675C6.9165 6.58523 6.78481 6.26729 6.55039 6.03286C6.31597 5.79844 5.99802 5.66675 5.6665 5.66675C5.33498 5.66675 5.01704 5.79844 4.78262 6.03286C4.5482 6.26729 4.4165 6.58523 4.4165 6.91675C4.4165 7.24827 4.5482 7.56621 4.78262 7.80063C5.01704 8.03505 5.33498 8.16675 5.6665 8.16675ZM12.3332 8.16675C12.6647 8.16675 12.9826 8.03505 13.2171 7.80063C13.4515 7.56621 13.5832 7.24827 13.5832 6.91675C13.5832 6.58523 13.4515 6.26729 13.2171 6.03286C12.9826 5.79844 12.6647 5.66675 12.3332 5.66675C12.0017 5.66675 11.6837 5.79844 11.4493 6.03286C11.2149 6.26729 11.0832 6.58523 11.0832 6.91675C11.0832 7.24827 11.2149 7.56621 11.4493 7.80063C11.6837 8.03505 12.0017 8.16675 12.3332 8.16675Z" fill="#212134"/>
</svg>
